<mxfile host="65bd71144e" pages="5">
    <diagram id="kgpKYQtTHZ0yAKxKKP6v" name="Page-1">
        <mxGraphModel dx="1118" dy="790" grid="1" gridSize="10" guides="1" tooltips="1" connect="1" arrows="1" fold="1" page="1" pageScale="1" pageWidth="850" pageHeight="1100" math="0" shadow="0">
            <root>
                <mxCell id="0"/>
                <mxCell id="1" parent="0"/>
                <mxCell id="3nuBFxr9cyL0pnOWT2aG-1" value=":Object" style="shape=umlLifeline;perimeter=lifelinePerimeter;container=1;collapsible=0;recursiveResize=0;rounded=0;shadow=0;strokeWidth=1;" parent="1" vertex="1">
                    <mxGeometry x="315" y="700" width="100" height="300" as="geometry"/>
                </mxCell>
                <mxCell id="3nuBFxr9cyL0pnOWT2aG-2" value="" style="points=[];perimeter=orthogonalPerimeter;rounded=0;shadow=0;strokeWidth=1;" parent="3nuBFxr9cyL0pnOWT2aG-1" vertex="1">
                    <mxGeometry x="45" y="70" width="10" height="190" as="geometry"/>
                </mxCell>
                <mxCell id="3nuBFxr9cyL0pnOWT2aG-3" value="dispatch" style="verticalAlign=bottom;startArrow=oval;endArrow=block;startSize=8;shadow=0;strokeWidth=1;" parent="3nuBFxr9cyL0pnOWT2aG-1" target="3nuBFxr9cyL0pnOWT2aG-2" edge="1">
                    <mxGeometry relative="1" as="geometry">
                        <mxPoint x="-15" y="70" as="sourcePoint"/>
                    </mxGeometry>
                </mxCell>
                <mxCell id="3nuBFxr9cyL0pnOWT2aG-4" value="" style="points=[];perimeter=orthogonalPerimeter;rounded=0;shadow=0;strokeWidth=1;" parent="3nuBFxr9cyL0pnOWT2aG-1" vertex="1">
                    <mxGeometry x="70" y="120" width="10" height="80" as="geometry"/>
                </mxCell>
                <mxCell id="3nuBFxr9cyL0pnOWT2aG-5" value=":Object" style="shape=umlLifeline;perimeter=lifelinePerimeter;container=1;collapsible=0;recursiveResize=0;rounded=0;shadow=0;strokeWidth=1;" parent="1" vertex="1">
                    <mxGeometry x="625" y="700" width="200" height="300" as="geometry"/>
                </mxCell>
                <mxCell id="3nuBFxr9cyL0pnOWT2aG-6" value="" style="points=[];perimeter=orthogonalPerimeter;rounded=0;shadow=0;strokeWidth=1;" parent="3nuBFxr9cyL0pnOWT2aG-5" vertex="1">
                    <mxGeometry x="90" y="80" width="10" height="160" as="geometry"/>
                </mxCell>
                <mxCell id="3nuBFxr9cyL0pnOWT2aG-7" value="return" style="verticalAlign=bottom;endArrow=open;dashed=1;endSize=8;exitX=0;exitY=0.95;shadow=0;strokeWidth=1;" parent="1" source="3nuBFxr9cyL0pnOWT2aG-6" target="3nuBFxr9cyL0pnOWT2aG-2" edge="1">
                    <mxGeometry relative="1" as="geometry">
                        <mxPoint x="510" y="776" as="targetPoint"/>
                    </mxGeometry>
                </mxCell>
                <mxCell id="3nuBFxr9cyL0pnOWT2aG-8" value="dispatch" style="verticalAlign=bottom;endArrow=block;entryX=0;entryY=0;shadow=0;strokeWidth=1;" parent="1" source="3nuBFxr9cyL0pnOWT2aG-2" target="3nuBFxr9cyL0pnOWT2aG-6" edge="1">
                    <mxGeometry relative="1" as="geometry">
                        <mxPoint x="510" y="700" as="sourcePoint"/>
                    </mxGeometry>
                </mxCell>
                <mxCell id="3nuBFxr9cyL0pnOWT2aG-9" value="callback" style="verticalAlign=bottom;endArrow=block;entryX=1;entryY=0;shadow=0;strokeWidth=1;" parent="1" source="3nuBFxr9cyL0pnOWT2aG-6" target="3nuBFxr9cyL0pnOWT2aG-4" edge="1">
                    <mxGeometry relative="1" as="geometry">
                        <mxPoint x="475" y="740" as="sourcePoint"/>
                    </mxGeometry>
                </mxCell>
                <mxCell id="3nuBFxr9cyL0pnOWT2aG-10" value="return" style="verticalAlign=bottom;endArrow=open;dashed=1;endSize=8;exitX=1;exitY=0.95;shadow=0;strokeWidth=1;" parent="1" source="3nuBFxr9cyL0pnOWT2aG-4" target="3nuBFxr9cyL0pnOWT2aG-6" edge="1">
                    <mxGeometry relative="1" as="geometry">
                        <mxPoint x="475" y="797" as="targetPoint"/>
                    </mxGeometry>
                </mxCell>
                <mxCell id="mqqc6jQm4YsHIiU8XQrd-1" value=":Object" style="shape=umlLifeline;perimeter=lifelinePerimeter;container=1;collapsible=0;recursiveResize=0;rounded=0;shadow=0;strokeWidth=1;" parent="1" vertex="1">
                    <mxGeometry x="130" y="540" width="100" height="300" as="geometry"/>
                </mxCell>
                <mxCell id="mqqc6jQm4YsHIiU8XQrd-3" value="Actor" style="shape=umlActor;verticalLabelPosition=bottom;verticalAlign=top;html=1;outlineConnect=0;" parent="1" vertex="1">
                    <mxGeometry x="410" y="580" width="30" height="60" as="geometry"/>
                </mxCell>
                <mxCell id="mqqc6jQm4YsHIiU8XQrd-6" value="Entity Object" style="ellipse;shape=umlEntity;whiteSpace=wrap;html=1;" parent="1" vertex="1">
                    <mxGeometry x="610" y="20" width="80" height="80" as="geometry"/>
                </mxCell>
                <mxCell id="mqqc6jQm4YsHIiU8XQrd-7" value="Boundary Object" style="shape=umlBoundary;whiteSpace=wrap;html=1;verticalAlign=middle;" parent="1" vertex="1">
                    <mxGeometry x="280" y="20" width="100" height="80" as="geometry"/>
                </mxCell>
                <mxCell id="mqqc6jQm4YsHIiU8XQrd-8" value="Control Object" style="ellipse;shape=umlControl;whiteSpace=wrap;html=1;" parent="1" vertex="1">
                    <mxGeometry x="440" y="20" width="70" height="80" as="geometry"/>
                </mxCell>
                <mxCell id="mqqc6jQm4YsHIiU8XQrd-9" value="Actor" style="shape=umlActor;verticalLabelPosition=bottom;verticalAlign=top;html=1;" parent="1" vertex="1">
                    <mxGeometry x="150" y="20" width="30" height="60" as="geometry"/>
                </mxCell>
                <mxCell id="mqqc6jQm4YsHIiU8XQrd-2" value="" style="points=[];perimeter=orthogonalPerimeter;rounded=0;shadow=0;strokeWidth=1;" parent="1" vertex="1">
                    <mxGeometry x="758.93" y="200" width="10" height="160" as="geometry"/>
                </mxCell>
                <mxCell id="cC44ZskdjL0CHXQU9rsd-1" value="" style="shape=umlLifeline;perimeter=lifelinePerimeter;whiteSpace=wrap;html=1;container=1;collapsible=0;recursiveResize=0;outlineConnect=0;size=0;rotation=10;direction=west;" parent="1" vertex="1">
                    <mxGeometry x="139.49" y="150.07" width="52.51" height="200.01" as="geometry"/>
                </mxCell>
                <mxCell id="cC44ZskdjL0CHXQU9rsd-2" value="" style="shape=umlLifeline;participant=umlActor;perimeter=lifelinePerimeter;whiteSpace=wrap;html=1;container=1;collapsible=0;recursiveResize=0;verticalAlign=top;spacingTop=36;outlineConnect=0;" parent="1" vertex="1">
                    <mxGeometry x="350" y="180" width="20" height="300" as="geometry"/>
                </mxCell>
                <mxCell id="cC44ZskdjL0CHXQU9rsd-3" value="" style="shape=umlLifeline;participant=umlBoundary;perimeter=lifelinePerimeter;whiteSpace=wrap;html=1;container=1;collapsible=0;recursiveResize=0;verticalAlign=top;spacingTop=0;outlineConnect=0;size=60;" parent="1" vertex="1">
                    <mxGeometry x="525" y="190" width="100" height="100" as="geometry"/>
                </mxCell>
                <mxCell id="LBSDcuOgpyzjthrWe2jc-1" value="Text" style="text;html=1;align=center;verticalAlign=middle;resizable=0;points=[];autosize=1;strokeColor=none;fillColor=none;" parent="1" vertex="1">
                    <mxGeometry x="530" y="260" width="40" height="20" as="geometry"/>
                </mxCell>
            </root>
        </mxGraphModel>
    </diagram>
    <diagram id="DaywrxyqPzloRW_mxq4J" name="Register">
        <mxGraphModel dx="1118" dy="790" grid="1" gridSize="10" guides="1" tooltips="1" connect="1" arrows="1" fold="1" page="1" pageScale="1" pageWidth="850" pageHeight="1100" math="0" shadow="0">
            <root>
                <mxCell id="uE61x-CV2cT_atNsyj_W-0"/>
                <mxCell id="uE61x-CV2cT_atNsyj_W-1" parent="uE61x-CV2cT_atNsyj_W-0"/>
                <mxCell id="h0n_vAOrBYbkvabjMVcF-1" value="&lt;span style=&quot;font-weight: 700&quot;&gt;Register_Form: Reg&lt;/span&gt;" style="shape=umlLifeline;participant=umlBoundary;perimeter=lifelinePerimeter;whiteSpace=wrap;html=1;container=1;collapsible=0;recursiveResize=0;verticalAlign=top;spacingTop=36;outlineConnect=0;" parent="uE61x-CV2cT_atNsyj_W-1" vertex="1">
                    <mxGeometry x="230" y="50" width="50" height="300" as="geometry"/>
                </mxCell>
                <mxCell id="h0n_vAOrBYbkvabjMVcF-7" value="" style="html=1;points=[];perimeter=orthogonalPerimeter;" parent="h0n_vAOrBYbkvabjMVcF-1" vertex="1">
                    <mxGeometry x="20" y="90" width="10" height="40" as="geometry"/>
                </mxCell>
                <mxCell id="h0n_vAOrBYbkvabjMVcF-2" value="&lt;span style=&quot;font-size: 13px ; font-weight: 700&quot;&gt;User : us&lt;/span&gt;" style="shape=umlLifeline;participant=umlEntity;perimeter=lifelinePerimeter;whiteSpace=wrap;html=1;container=1;collapsible=0;recursiveResize=0;verticalAlign=top;spacingTop=36;outlineConnect=0;" parent="uE61x-CV2cT_atNsyj_W-1" vertex="1">
                    <mxGeometry x="520" y="50" width="40" height="300" as="geometry"/>
                </mxCell>
                <mxCell id="h0n_vAOrBYbkvabjMVcF-8" value="" style="html=1;points=[];perimeter=orthogonalPerimeter;" parent="h0n_vAOrBYbkvabjMVcF-2" vertex="1">
                    <mxGeometry x="15" y="90" width="10" height="80" as="geometry"/>
                </mxCell>
                <mxCell id="h0n_vAOrBYbkvabjMVcF-3" value="&lt;span style=&quot;font-weight: 700&quot;&gt;user_control:conti&lt;/span&gt;" style="shape=umlLifeline;participant=umlControl;perimeter=lifelinePerimeter;whiteSpace=wrap;html=1;container=1;collapsible=0;recursiveResize=0;verticalAlign=top;spacingTop=36;outlineConnect=0;" parent="uE61x-CV2cT_atNsyj_W-1" vertex="1">
                    <mxGeometry x="370" y="50" width="40" height="300" as="geometry"/>
                </mxCell>
                <mxCell id="h0n_vAOrBYbkvabjMVcF-9" value="" style="html=1;points=[];perimeter=orthogonalPerimeter;" parent="h0n_vAOrBYbkvabjMVcF-3" vertex="1">
                    <mxGeometry x="15" y="90" width="10" height="80" as="geometry"/>
                </mxCell>
                <mxCell id="h0n_vAOrBYbkvabjMVcF-4" value="" style="shape=umlLifeline;participant=umlActor;perimeter=lifelinePerimeter;whiteSpace=wrap;html=1;container=1;collapsible=0;recursiveResize=0;verticalAlign=top;spacingTop=36;outlineConnect=0;" parent="uE61x-CV2cT_atNsyj_W-1" vertex="1">
                    <mxGeometry x="90" y="50" width="20" height="300" as="geometry"/>
                </mxCell>
                <mxCell id="h0n_vAOrBYbkvabjMVcF-5" value="" style="html=1;points=[];perimeter=orthogonalPerimeter;" parent="h0n_vAOrBYbkvabjMVcF-4" vertex="1">
                    <mxGeometry x="5" y="90" width="10" height="80" as="geometry"/>
                </mxCell>
                <mxCell id="3ByKe78RMBbvpsGWrZFl-0" value="open" style="html=1;verticalAlign=bottom;endArrow=block;rounded=0;entryX=-0.08;entryY=0.24;entryDx=0;entryDy=0;entryPerimeter=0;" parent="uE61x-CV2cT_atNsyj_W-1" source="h0n_vAOrBYbkvabjMVcF-5" target="h0n_vAOrBYbkvabjMVcF-7" edge="1">
                    <mxGeometry width="80" relative="1" as="geometry">
                        <mxPoint x="120" y="150" as="sourcePoint"/>
                        <mxPoint x="200" y="150" as="targetPoint"/>
                        <mxPoint as="offset"/>
                    </mxGeometry>
                </mxCell>
                <mxCell id="3ByKe78RMBbvpsGWrZFl-2" value="fill data" style="html=1;verticalAlign=bottom;endArrow=block;rounded=0;" parent="uE61x-CV2cT_atNsyj_W-1" target="h0n_vAOrBYbkvabjMVcF-3" edge="1">
                    <mxGeometry width="80" relative="1" as="geometry">
                        <mxPoint x="260" y="160" as="sourcePoint"/>
                        <mxPoint x="259.20000000000005" y="159.60000000000002" as="targetPoint"/>
                        <mxPoint as="offset"/>
                    </mxGeometry>
                </mxCell>
                <mxCell id="3ByKe78RMBbvpsGWrZFl-3" value="create anew user" style="html=1;verticalAlign=bottom;endArrow=block;rounded=0;exitX=0.98;exitY=0.54;exitDx=0;exitDy=0;exitPerimeter=0;" parent="uE61x-CV2cT_atNsyj_W-1" source="h0n_vAOrBYbkvabjMVcF-9" target="h0n_vAOrBYbkvabjMVcF-2" edge="1">
                    <mxGeometry width="80" relative="1" as="geometry">
                        <mxPoint x="270" y="170" as="sourcePoint"/>
                        <mxPoint x="399.5" y="170" as="targetPoint"/>
                        <mxPoint as="offset"/>
                    </mxGeometry>
                </mxCell>
            </root>
        </mxGraphModel>
    </diagram>
    <diagram id="muTbwuv_Eqvn79zfGxkc" name="Ask for maintenence">
        <mxGraphModel dx="1118" dy="790" grid="1" gridSize="10" guides="1" tooltips="1" connect="1" arrows="1" fold="1" page="1" pageScale="1" pageWidth="850" pageHeight="1100" math="0" shadow="0">
            <root>
                <mxCell id="a6GjbHVUyf48lvHfV39T-0"/>
                <mxCell id="a6GjbHVUyf48lvHfV39T-1" parent="a6GjbHVUyf48lvHfV39T-0"/>
                <mxCell id="T2O5EIdljIUx_O6fYQFJ-0" value="Ask for Maintenence : main&lt;br&gt;" style="shape=umlLifeline;participant=umlBoundary;perimeter=lifelinePerimeter;whiteSpace=wrap;html=1;container=1;collapsible=0;recursiveResize=0;verticalAlign=top;spacingTop=36;outlineConnect=0;" parent="a6GjbHVUyf48lvHfV39T-1" vertex="1">
                    <mxGeometry x="230" y="50" width="50" height="410" as="geometry"/>
                </mxCell>
                <mxCell id="T2O5EIdljIUx_O6fYQFJ-1" value="" style="html=1;points=[];perimeter=orthogonalPerimeter;" parent="T2O5EIdljIUx_O6fYQFJ-0" vertex="1">
                    <mxGeometry x="20" y="120" width="10" height="80" as="geometry"/>
                </mxCell>
                <mxCell id="-X5aoYfBuNitaivfSrXo-6" value="" style="html=1;points=[];perimeter=orthogonalPerimeter;" parent="T2O5EIdljIUx_O6fYQFJ-0" vertex="1">
                    <mxGeometry x="20" y="210" width="10" height="40" as="geometry"/>
                </mxCell>
                <mxCell id="-X5aoYfBuNitaivfSrXo-17" value="" style="html=1;points=[];perimeter=orthogonalPerimeter;" parent="T2O5EIdljIUx_O6fYQFJ-0" vertex="1">
                    <mxGeometry x="20" y="280" width="10" height="40" as="geometry"/>
                </mxCell>
                <mxCell id="-X5aoYfBuNitaivfSrXo-15" value="" style="html=1;points=[];perimeter=orthogonalPerimeter;" parent="T2O5EIdljIUx_O6fYQFJ-0" vertex="1">
                    <mxGeometry x="20" y="330" width="10" height="40" as="geometry"/>
                </mxCell>
                <mxCell id="T2O5EIdljIUx_O6fYQFJ-2" value="worker" style="shape=umlLifeline;participant=umlEntity;perimeter=lifelinePerimeter;whiteSpace=wrap;html=1;container=1;collapsible=0;recursiveResize=0;verticalAlign=top;spacingTop=36;outlineConnect=0;" parent="a6GjbHVUyf48lvHfV39T-1" vertex="1">
                    <mxGeometry x="470" y="50" width="40" height="400" as="geometry"/>
                </mxCell>
                <mxCell id="T2O5EIdljIUx_O6fYQFJ-3" value="" style="html=1;points=[];perimeter=orthogonalPerimeter;" parent="T2O5EIdljIUx_O6fYQFJ-2" vertex="1">
                    <mxGeometry x="15" y="130" width="10" height="140" as="geometry"/>
                </mxCell>
                <mxCell id="-X5aoYfBuNitaivfSrXo-11" value="" style="html=1;points=[];perimeter=orthogonalPerimeter;" parent="T2O5EIdljIUx_O6fYQFJ-2" vertex="1">
                    <mxGeometry x="15" y="330" width="10" height="50" as="geometry"/>
                </mxCell>
                <mxCell id="T2O5EIdljIUx_O6fYQFJ-4" value="service control" style="shape=umlLifeline;participant=umlControl;perimeter=lifelinePerimeter;whiteSpace=wrap;html=1;container=1;collapsible=0;recursiveResize=0;verticalAlign=top;spacingTop=36;outlineConnect=0;" parent="a6GjbHVUyf48lvHfV39T-1" vertex="1">
                    <mxGeometry x="370" y="50" width="40" height="410" as="geometry"/>
                </mxCell>
                <mxCell id="T2O5EIdljIUx_O6fYQFJ-5" value="" style="html=1;points=[];perimeter=orthogonalPerimeter;" parent="T2O5EIdljIUx_O6fYQFJ-4" vertex="1">
                    <mxGeometry x="15" y="130" width="10" height="140" as="geometry"/>
                </mxCell>
                <mxCell id="-X5aoYfBuNitaivfSrXo-2" value="filter" style="html=1;verticalAlign=bottom;endArrow=block;rounded=0;" parent="T2O5EIdljIUx_O6fYQFJ-4" edge="1">
                    <mxGeometry width="80" relative="1" as="geometry">
                        <mxPoint x="-110" y="169.5" as="sourcePoint"/>
                        <mxPoint x="19.5" y="169.5" as="targetPoint"/>
                        <mxPoint as="offset"/>
                    </mxGeometry>
                </mxCell>
                <mxCell id="-X5aoYfBuNitaivfSrXo-10" value="" style="html=1;points=[];perimeter=orthogonalPerimeter;" parent="T2O5EIdljIUx_O6fYQFJ-4" vertex="1">
                    <mxGeometry x="15" y="330" width="10" height="40" as="geometry"/>
                </mxCell>
                <mxCell id="T2O5EIdljIUx_O6fYQFJ-6" value="customer" style="shape=umlLifeline;participant=umlActor;perimeter=lifelinePerimeter;whiteSpace=wrap;html=1;container=1;collapsible=0;recursiveResize=0;verticalAlign=top;spacingTop=36;outlineConnect=0;" parent="a6GjbHVUyf48lvHfV39T-1" vertex="1">
                    <mxGeometry x="90" y="50" width="20" height="530" as="geometry"/>
                </mxCell>
                <mxCell id="T2O5EIdljIUx_O6fYQFJ-11" value="service" style="shape=umlLifeline;participant=umlEntity;perimeter=lifelinePerimeter;whiteSpace=wrap;html=1;container=1;collapsible=0;recursiveResize=0;verticalAlign=top;spacingTop=36;outlineConnect=0;" parent="a6GjbHVUyf48lvHfV39T-1" vertex="1">
                    <mxGeometry x="570" y="50" width="40" height="540" as="geometry"/>
                </mxCell>
                <mxCell id="T2O5EIdljIUx_O6fYQFJ-15" value="Maintenence" style="shape=umlLifeline;participant=umlEntity;perimeter=lifelinePerimeter;whiteSpace=wrap;html=1;container=1;collapsible=0;recursiveResize=0;verticalAlign=top;spacingTop=36;outlineConnect=0;" parent="a6GjbHVUyf48lvHfV39T-1" vertex="1">
                    <mxGeometry x="670" y="50" width="40" height="300" as="geometry"/>
                </mxCell>
                <mxCell id="T2O5EIdljIUx_O6fYQFJ-16" value="" style="html=1;points=[];perimeter=orthogonalPerimeter;" parent="T2O5EIdljIUx_O6fYQFJ-15" vertex="1">
                    <mxGeometry x="15" y="130" width="10" height="80" as="geometry"/>
                </mxCell>
                <mxCell id="-X5aoYfBuNitaivfSrXo-0" value="fill data" style="html=1;verticalAlign=bottom;endArrow=block;rounded=0;exitX=1.12;exitY=0.155;exitDx=0;exitDy=0;exitPerimeter=0;" parent="a6GjbHVUyf48lvHfV39T-1" source="T2O5EIdljIUx_O6fYQFJ-7" target="T2O5EIdljIUx_O6fYQFJ-0" edge="1">
                    <mxGeometry width="80" relative="1" as="geometry">
                        <mxPoint x="110" y="200" as="sourcePoint"/>
                        <mxPoint x="220" y="200" as="targetPoint"/>
                        <mxPoint as="offset"/>
                    </mxGeometry>
                </mxCell>
                <mxCell id="-X5aoYfBuNitaivfSrXo-3" value="save data" style="html=1;verticalAlign=bottom;endArrow=block;rounded=0;exitX=1.28;exitY=0.944;exitDx=0;exitDy=0;exitPerimeter=0;" parent="a6GjbHVUyf48lvHfV39T-1" source="T2O5EIdljIUx_O6fYQFJ-7" target="T2O5EIdljIUx_O6fYQFJ-11" edge="1">
                    <mxGeometry width="80" relative="1" as="geometry">
                        <mxPoint x="109.5" y="210" as="sourcePoint"/>
                        <mxPoint x="264.5" y="210" as="targetPoint"/>
                        <mxPoint as="offset"/>
                    </mxGeometry>
                </mxCell>
                <mxCell id="-X5aoYfBuNitaivfSrXo-4" value="return worker" style="html=1;verticalAlign=bottom;endArrow=open;dashed=1;endSize=8;rounded=0;exitX=-0.3;exitY=0.848;exitDx=0;exitDy=0;exitPerimeter=0;" parent="a6GjbHVUyf48lvHfV39T-1" source="T2O5EIdljIUx_O6fYQFJ-3" target="T2O5EIdljIUx_O6fYQFJ-4" edge="1">
                    <mxGeometry relative="1" as="geometry">
                        <mxPoint x="480" y="490" as="sourcePoint"/>
                        <mxPoint x="250" y="470" as="targetPoint"/>
                        <Array as="points"/>
                        <mxPoint as="offset"/>
                    </mxGeometry>
                </mxCell>
                <mxCell id="T2O5EIdljIUx_O6fYQFJ-12" value="" style="html=1;points=[];perimeter=orthogonalPerimeter;" parent="a6GjbHVUyf48lvHfV39T-1" vertex="1">
                    <mxGeometry x="585" y="310" width="10" height="190" as="geometry"/>
                </mxCell>
                <mxCell id="T2O5EIdljIUx_O6fYQFJ-7" value="" style="html=1;points=[];perimeter=orthogonalPerimeter;" parent="a6GjbHVUyf48lvHfV39T-1" vertex="1">
                    <mxGeometry x="90" y="170" width="10" height="320" as="geometry"/>
                </mxCell>
                <mxCell id="-X5aoYfBuNitaivfSrXo-1" value="get worker" style="html=1;verticalAlign=bottom;endArrow=block;rounded=0;" parent="a6GjbHVUyf48lvHfV39T-1" edge="1">
                    <mxGeometry width="80" relative="1" as="geometry">
                        <mxPoint x="400" y="222" as="sourcePoint"/>
                        <mxPoint x="490" y="222" as="targetPoint"/>
                        <mxPoint as="offset"/>
                    </mxGeometry>
                </mxCell>
                <mxCell id="-X5aoYfBuNitaivfSrXo-5" value="show workers" style="html=1;verticalAlign=bottom;endArrow=open;dashed=1;endSize=8;rounded=0;" parent="a6GjbHVUyf48lvHfV39T-1" target="T2O5EIdljIUx_O6fYQFJ-0" edge="1">
                    <mxGeometry x="0.0332" relative="1" as="geometry">
                        <mxPoint x="390" y="275" as="sourcePoint"/>
                        <mxPoint x="399.5" y="274.79999999999995" as="targetPoint"/>
                        <Array as="points"/>
                        <mxPoint as="offset"/>
                    </mxGeometry>
                </mxCell>
                <mxCell id="-X5aoYfBuNitaivfSrXo-18" value="display workers" style="edgeStyle=orthogonalEdgeStyle;html=1;align=left;spacingLeft=2;endArrow=block;rounded=0;" parent="a6GjbHVUyf48lvHfV39T-1" edge="1">
                    <mxGeometry x="-0.6923" y="10" relative="1" as="geometry">
                        <mxPoint x="260" y="330" as="sourcePoint"/>
                        <Array as="points">
                            <mxPoint x="315" y="330"/>
                            <mxPoint x="315" y="350"/>
                        </Array>
                        <mxPoint x="260" y="350" as="targetPoint"/>
                        <mxPoint as="offset"/>
                    </mxGeometry>
                </mxCell>
                <mxCell id="-X5aoYfBuNitaivfSrXo-19" value="choose worker" style="html=1;verticalAlign=bottom;endArrow=block;rounded=0;exitX=1.2;exitY=0.42;exitDx=0;exitDy=0;exitPerimeter=0;" parent="a6GjbHVUyf48lvHfV39T-1" source="-X5aoYfBuNitaivfSrXo-15" target="T2O5EIdljIUx_O6fYQFJ-4" edge="1">
                    <mxGeometry width="80" relative="1" as="geometry">
                        <mxPoint x="111.20000000000005" y="229.60000000000002" as="sourcePoint"/>
                        <mxPoint x="360" y="390" as="targetPoint"/>
                        <mxPoint as="offset"/>
                    </mxGeometry>
                </mxCell>
                <mxCell id="-X5aoYfBuNitaivfSrXo-20" value="choose worker" style="html=1;verticalAlign=bottom;endArrow=block;rounded=0;exitX=0.9;exitY=0.64;exitDx=0;exitDy=0;exitPerimeter=0;" parent="a6GjbHVUyf48lvHfV39T-1" source="-X5aoYfBuNitaivfSrXo-10" edge="1">
                    <mxGeometry width="80" relative="1" as="geometry">
                        <mxPoint x="400" y="407" as="sourcePoint"/>
                        <mxPoint x="490" y="406" as="targetPoint"/>
                        <mxPoint as="offset"/>
                    </mxGeometry>
                </mxCell>
            </root>
        </mxGraphModel>
    </diagram>
    <diagram id="UR3WfIrkIkck6pAgJDMh" name="Ask for cleaning">
        <mxGraphModel dx="1118" dy="790" grid="1" gridSize="10" guides="1" tooltips="1" connect="1" arrows="1" fold="1" page="1" pageScale="1" pageWidth="850" pageHeight="1100" math="0" shadow="0">
            <root>
                <mxCell id="42UI3Y58GFfDcsWxoLvp-0"/>
                <mxCell id="42UI3Y58GFfDcsWxoLvp-1" parent="42UI3Y58GFfDcsWxoLvp-0"/>
                <mxCell id="1gHMhaOTbq6R4JViohwM-0" value="Ask for&amp;nbsp;&lt;br&gt;Cleaning : clean" style="shape=umlLifeline;participant=umlBoundary;perimeter=lifelinePerimeter;whiteSpace=wrap;html=1;container=1;collapsible=0;recursiveResize=0;verticalAlign=top;spacingTop=36;outlineConnect=0;" parent="42UI3Y58GFfDcsWxoLvp-1" vertex="1">
                    <mxGeometry x="230" y="50" width="50" height="410" as="geometry"/>
                </mxCell>
                <mxCell id="1gHMhaOTbq6R4JViohwM-1" value="" style="html=1;points=[];perimeter=orthogonalPerimeter;" parent="1gHMhaOTbq6R4JViohwM-0" vertex="1">
                    <mxGeometry x="20" y="120" width="10" height="80" as="geometry"/>
                </mxCell>
                <mxCell id="1gHMhaOTbq6R4JViohwM-2" value="" style="html=1;points=[];perimeter=orthogonalPerimeter;" parent="1gHMhaOTbq6R4JViohwM-0" vertex="1">
                    <mxGeometry x="20" y="210" width="10" height="40" as="geometry"/>
                </mxCell>
                <mxCell id="1gHMhaOTbq6R4JViohwM-3" value="" style="html=1;points=[];perimeter=orthogonalPerimeter;" parent="1gHMhaOTbq6R4JViohwM-0" vertex="1">
                    <mxGeometry x="20" y="280" width="10" height="40" as="geometry"/>
                </mxCell>
                <mxCell id="1gHMhaOTbq6R4JViohwM-4" value="" style="html=1;points=[];perimeter=orthogonalPerimeter;" parent="1gHMhaOTbq6R4JViohwM-0" vertex="1">
                    <mxGeometry x="20" y="330" width="10" height="40" as="geometry"/>
                </mxCell>
                <mxCell id="1gHMhaOTbq6R4JViohwM-5" value="worker" style="shape=umlLifeline;participant=umlEntity;perimeter=lifelinePerimeter;whiteSpace=wrap;html=1;container=1;collapsible=0;recursiveResize=0;verticalAlign=top;spacingTop=36;outlineConnect=0;" parent="42UI3Y58GFfDcsWxoLvp-1" vertex="1">
                    <mxGeometry x="470" y="50" width="40" height="400" as="geometry"/>
                </mxCell>
                <mxCell id="1gHMhaOTbq6R4JViohwM-6" value="" style="html=1;points=[];perimeter=orthogonalPerimeter;" parent="1gHMhaOTbq6R4JViohwM-5" vertex="1">
                    <mxGeometry x="15" y="130" width="10" height="140" as="geometry"/>
                </mxCell>
                <mxCell id="1gHMhaOTbq6R4JViohwM-7" value="" style="html=1;points=[];perimeter=orthogonalPerimeter;" parent="1gHMhaOTbq6R4JViohwM-5" vertex="1">
                    <mxGeometry x="15" y="330" width="10" height="50" as="geometry"/>
                </mxCell>
                <mxCell id="1gHMhaOTbq6R4JViohwM-8" value="service control" style="shape=umlLifeline;participant=umlControl;perimeter=lifelinePerimeter;whiteSpace=wrap;html=1;container=1;collapsible=0;recursiveResize=0;verticalAlign=top;spacingTop=36;outlineConnect=0;" parent="42UI3Y58GFfDcsWxoLvp-1" vertex="1">
                    <mxGeometry x="370" y="50" width="40" height="410" as="geometry"/>
                </mxCell>
                <mxCell id="1gHMhaOTbq6R4JViohwM-9" value="" style="html=1;points=[];perimeter=orthogonalPerimeter;" parent="1gHMhaOTbq6R4JViohwM-8" vertex="1">
                    <mxGeometry x="15" y="130" width="10" height="140" as="geometry"/>
                </mxCell>
                <mxCell id="1gHMhaOTbq6R4JViohwM-10" value="filter" style="html=1;verticalAlign=bottom;endArrow=block;rounded=0;" parent="1gHMhaOTbq6R4JViohwM-8" edge="1">
                    <mxGeometry width="80" relative="1" as="geometry">
                        <mxPoint x="-110" y="169.5" as="sourcePoint"/>
                        <mxPoint x="19.5" y="169.5" as="targetPoint"/>
                        <mxPoint as="offset"/>
                    </mxGeometry>
                </mxCell>
                <mxCell id="1gHMhaOTbq6R4JViohwM-11" value="" style="html=1;points=[];perimeter=orthogonalPerimeter;" parent="1gHMhaOTbq6R4JViohwM-8" vertex="1">
                    <mxGeometry x="15" y="330" width="10" height="40" as="geometry"/>
                </mxCell>
                <mxCell id="1gHMhaOTbq6R4JViohwM-12" value="customer" style="shape=umlLifeline;participant=umlActor;perimeter=lifelinePerimeter;whiteSpace=wrap;html=1;container=1;collapsible=0;recursiveResize=0;verticalAlign=top;spacingTop=36;outlineConnect=0;" parent="42UI3Y58GFfDcsWxoLvp-1" vertex="1">
                    <mxGeometry x="90" y="50" width="20" height="530" as="geometry"/>
                </mxCell>
                <mxCell id="1gHMhaOTbq6R4JViohwM-13" value="service" style="shape=umlLifeline;participant=umlEntity;perimeter=lifelinePerimeter;whiteSpace=wrap;html=1;container=1;collapsible=0;recursiveResize=0;verticalAlign=top;spacingTop=36;outlineConnect=0;" parent="42UI3Y58GFfDcsWxoLvp-1" vertex="1">
                    <mxGeometry x="570" y="50" width="40" height="540" as="geometry"/>
                </mxCell>
                <mxCell id="1gHMhaOTbq6R4JViohwM-14" value="clenaing" style="shape=umlLifeline;participant=umlEntity;perimeter=lifelinePerimeter;whiteSpace=wrap;html=1;container=1;collapsible=0;recursiveResize=0;verticalAlign=top;spacingTop=36;outlineConnect=0;" parent="42UI3Y58GFfDcsWxoLvp-1" vertex="1">
                    <mxGeometry x="670" y="50" width="40" height="300" as="geometry"/>
                </mxCell>
                <mxCell id="1gHMhaOTbq6R4JViohwM-15" value="" style="html=1;points=[];perimeter=orthogonalPerimeter;" parent="1gHMhaOTbq6R4JViohwM-14" vertex="1">
                    <mxGeometry x="15" y="130" width="10" height="80" as="geometry"/>
                </mxCell>
                <mxCell id="1gHMhaOTbq6R4JViohwM-16" value="fill data" style="html=1;verticalAlign=bottom;endArrow=block;rounded=0;exitX=1.12;exitY=0.155;exitDx=0;exitDy=0;exitPerimeter=0;" parent="42UI3Y58GFfDcsWxoLvp-1" source="1gHMhaOTbq6R4JViohwM-20" target="1gHMhaOTbq6R4JViohwM-0" edge="1">
                    <mxGeometry width="80" relative="1" as="geometry">
                        <mxPoint x="110" y="200" as="sourcePoint"/>
                        <mxPoint x="220" y="200" as="targetPoint"/>
                        <mxPoint as="offset"/>
                    </mxGeometry>
                </mxCell>
                <mxCell id="1gHMhaOTbq6R4JViohwM-17" value="save data" style="html=1;verticalAlign=bottom;endArrow=block;rounded=0;exitX=1.28;exitY=0.944;exitDx=0;exitDy=0;exitPerimeter=0;" parent="42UI3Y58GFfDcsWxoLvp-1" source="1gHMhaOTbq6R4JViohwM-20" target="1gHMhaOTbq6R4JViohwM-13" edge="1">
                    <mxGeometry width="80" relative="1" as="geometry">
                        <mxPoint x="109.5" y="210" as="sourcePoint"/>
                        <mxPoint x="264.5" y="210" as="targetPoint"/>
                        <mxPoint as="offset"/>
                    </mxGeometry>
                </mxCell>
                <mxCell id="1gHMhaOTbq6R4JViohwM-18" value="return worker" style="html=1;verticalAlign=bottom;endArrow=open;dashed=1;endSize=8;rounded=0;exitX=-0.3;exitY=0.848;exitDx=0;exitDy=0;exitPerimeter=0;" parent="42UI3Y58GFfDcsWxoLvp-1" source="1gHMhaOTbq6R4JViohwM-6" target="1gHMhaOTbq6R4JViohwM-8" edge="1">
                    <mxGeometry relative="1" as="geometry">
                        <mxPoint x="480" y="490" as="sourcePoint"/>
                        <mxPoint x="250" y="470" as="targetPoint"/>
                        <Array as="points"/>
                        <mxPoint as="offset"/>
                    </mxGeometry>
                </mxCell>
                <mxCell id="1gHMhaOTbq6R4JViohwM-19" value="" style="html=1;points=[];perimeter=orthogonalPerimeter;" parent="42UI3Y58GFfDcsWxoLvp-1" vertex="1">
                    <mxGeometry x="585" y="310" width="10" height="190" as="geometry"/>
                </mxCell>
                <mxCell id="1gHMhaOTbq6R4JViohwM-20" value="" style="html=1;points=[];perimeter=orthogonalPerimeter;" parent="42UI3Y58GFfDcsWxoLvp-1" vertex="1">
                    <mxGeometry x="90" y="170" width="10" height="320" as="geometry"/>
                </mxCell>
                <mxCell id="1gHMhaOTbq6R4JViohwM-21" value="get worker" style="html=1;verticalAlign=bottom;endArrow=block;rounded=0;" parent="42UI3Y58GFfDcsWxoLvp-1" edge="1">
                    <mxGeometry width="80" relative="1" as="geometry">
                        <mxPoint x="400" y="222" as="sourcePoint"/>
                        <mxPoint x="490" y="222" as="targetPoint"/>
                        <mxPoint as="offset"/>
                    </mxGeometry>
                </mxCell>
                <mxCell id="1gHMhaOTbq6R4JViohwM-22" value="show workers" style="html=1;verticalAlign=bottom;endArrow=open;dashed=1;endSize=8;rounded=0;" parent="42UI3Y58GFfDcsWxoLvp-1" target="1gHMhaOTbq6R4JViohwM-0" edge="1">
                    <mxGeometry x="0.0332" relative="1" as="geometry">
                        <mxPoint x="390" y="275" as="sourcePoint"/>
                        <mxPoint x="399.5" y="274.79999999999995" as="targetPoint"/>
                        <Array as="points"/>
                        <mxPoint as="offset"/>
                    </mxGeometry>
                </mxCell>
                <mxCell id="1gHMhaOTbq6R4JViohwM-23" value="display workers" style="edgeStyle=orthogonalEdgeStyle;html=1;align=left;spacingLeft=2;endArrow=block;rounded=0;" parent="42UI3Y58GFfDcsWxoLvp-1" edge="1">
                    <mxGeometry x="-0.6923" y="10" relative="1" as="geometry">
                        <mxPoint x="260" y="330" as="sourcePoint"/>
                        <Array as="points">
                            <mxPoint x="315" y="330"/>
                            <mxPoint x="315" y="350"/>
                        </Array>
                        <mxPoint x="260" y="350" as="targetPoint"/>
                        <mxPoint as="offset"/>
                    </mxGeometry>
                </mxCell>
                <mxCell id="1gHMhaOTbq6R4JViohwM-24" value="choose worker" style="html=1;verticalAlign=bottom;endArrow=block;rounded=0;exitX=1.2;exitY=0.42;exitDx=0;exitDy=0;exitPerimeter=0;" parent="42UI3Y58GFfDcsWxoLvp-1" source="1gHMhaOTbq6R4JViohwM-4" target="1gHMhaOTbq6R4JViohwM-8" edge="1">
                    <mxGeometry width="80" relative="1" as="geometry">
                        <mxPoint x="111.20000000000005" y="229.60000000000002" as="sourcePoint"/>
                        <mxPoint x="360" y="390" as="targetPoint"/>
                        <mxPoint as="offset"/>
                    </mxGeometry>
                </mxCell>
                <mxCell id="1gHMhaOTbq6R4JViohwM-25" value="choose worker" style="html=1;verticalAlign=bottom;endArrow=block;rounded=0;exitX=0.9;exitY=0.64;exitDx=0;exitDy=0;exitPerimeter=0;" parent="42UI3Y58GFfDcsWxoLvp-1" source="1gHMhaOTbq6R4JViohwM-11" edge="1">
                    <mxGeometry width="80" relative="1" as="geometry">
                        <mxPoint x="400" y="407" as="sourcePoint"/>
                        <mxPoint x="490" y="406" as="targetPoint"/>
                        <mxPoint as="offset"/>
                    </mxGeometry>
                </mxCell>
            </root>
        </mxGraphModel>
    </diagram>
    <diagram id="snWfqeJSN5ZnUiPWJgoy" name="order">
        <mxGraphModel dx="1118" dy="790" grid="1" gridSize="10" guides="1" tooltips="1" connect="1" arrows="1" fold="1" page="1" pageScale="1" pageWidth="850" pageHeight="1100" math="0" shadow="0">
            <root>
                <mxCell id="dlqf_S2JkpdJH4igX8ao-0"/>
                <mxCell id="dlqf_S2JkpdJH4igX8ao-1" parent="dlqf_S2JkpdJH4igX8ao-0"/>
                <mxCell id="nVJlJKb-nnLWxaNG2b3j-0" value="order details" style="shape=umlLifeline;participant=umlBoundary;perimeter=lifelinePerimeter;whiteSpace=wrap;html=1;container=1;collapsible=0;recursiveResize=0;verticalAlign=top;spacingTop=36;outlineConnect=0;" parent="dlqf_S2JkpdJH4igX8ao-1" vertex="1">
                    <mxGeometry x="230" y="50" width="50" height="330" as="geometry"/>
                </mxCell>
                <mxCell id="nVJlJKb-nnLWxaNG2b3j-1" value="" style="html=1;points=[];perimeter=orthogonalPerimeter;" parent="nVJlJKb-nnLWxaNG2b3j-0" vertex="1">
                    <mxGeometry x="20" y="120" width="10" height="80" as="geometry"/>
                </mxCell>
                <mxCell id="nVJlJKb-nnLWxaNG2b3j-3" value="" style="html=1;points=[];perimeter=orthogonalPerimeter;" parent="nVJlJKb-nnLWxaNG2b3j-0" vertex="1">
                    <mxGeometry x="20" y="240" width="10" height="40" as="geometry"/>
                </mxCell>
                <mxCell id="nVJlJKb-nnLWxaNG2b3j-5" value="order" style="shape=umlLifeline;participant=umlEntity;perimeter=lifelinePerimeter;whiteSpace=wrap;html=1;container=1;collapsible=0;recursiveResize=0;verticalAlign=top;spacingTop=36;outlineConnect=0;" parent="dlqf_S2JkpdJH4igX8ao-1" vertex="1">
                    <mxGeometry x="630" y="55" width="40" height="1005" as="geometry"/>
                </mxCell>
                <mxCell id="nVJlJKb-nnLWxaNG2b3j-35" value="" style="html=1;points=[];perimeter=orthogonalPerimeter;" parent="nVJlJKb-nnLWxaNG2b3j-5" vertex="1">
                    <mxGeometry x="15" y="115" width="10" height="80" as="geometry"/>
                </mxCell>
                <mxCell id="u_BLpdaeCqH2IC9jJyCB-4" value="" style="html=1;points=[];perimeter=orthogonalPerimeter;" parent="nVJlJKb-nnLWxaNG2b3j-5" vertex="1">
                    <mxGeometry x="15" y="305" width="10" height="80" as="geometry"/>
                </mxCell>
                <mxCell id="u_BLpdaeCqH2IC9jJyCB-13" value="" style="html=1;points=[];perimeter=orthogonalPerimeter;" parent="nVJlJKb-nnLWxaNG2b3j-5" vertex="1">
                    <mxGeometry x="15" y="435" width="10" height="80" as="geometry"/>
                </mxCell>
                <mxCell id="u_BLpdaeCqH2IC9jJyCB-18" value="" style="html=1;points=[];perimeter=orthogonalPerimeter;" parent="nVJlJKb-nnLWxaNG2b3j-5" vertex="1">
                    <mxGeometry x="15" y="645" width="10" height="80" as="geometry"/>
                </mxCell>
                <mxCell id="u_BLpdaeCqH2IC9jJyCB-27" value="" style="html=1;points=[];perimeter=orthogonalPerimeter;" parent="nVJlJKb-nnLWxaNG2b3j-5" vertex="1">
                    <mxGeometry x="15" y="795" width="10" height="90" as="geometry"/>
                </mxCell>
                <mxCell id="nVJlJKb-nnLWxaNG2b3j-8" value="order control" style="shape=umlLifeline;participant=umlControl;perimeter=lifelinePerimeter;whiteSpace=wrap;html=1;container=1;collapsible=0;recursiveResize=0;verticalAlign=top;spacingTop=36;outlineConnect=0;" parent="dlqf_S2JkpdJH4igX8ao-1" vertex="1">
                    <mxGeometry x="460" y="45" width="40" height="1005" as="geometry"/>
                </mxCell>
                <mxCell id="nVJlJKb-nnLWxaNG2b3j-34" value="" style="html=1;points=[];perimeter=orthogonalPerimeter;" parent="nVJlJKb-nnLWxaNG2b3j-8" vertex="1">
                    <mxGeometry x="15" y="125" width="10" height="80" as="geometry"/>
                </mxCell>
                <mxCell id="u_BLpdaeCqH2IC9jJyCB-2" value="" style="html=1;points=[];perimeter=orthogonalPerimeter;" parent="nVJlJKb-nnLWxaNG2b3j-8" vertex="1">
                    <mxGeometry x="15" y="305" width="10" height="125" as="geometry"/>
                </mxCell>
                <mxCell id="u_BLpdaeCqH2IC9jJyCB-11" value="" style="html=1;points=[];perimeter=orthogonalPerimeter;" parent="nVJlJKb-nnLWxaNG2b3j-8" vertex="1">
                    <mxGeometry x="15" y="445" width="10" height="90" as="geometry"/>
                </mxCell>
                <mxCell id="u_BLpdaeCqH2IC9jJyCB-17" value="" style="html=1;points=[];perimeter=orthogonalPerimeter;" parent="nVJlJKb-nnLWxaNG2b3j-8" vertex="1">
                    <mxGeometry x="15" y="655" width="10" height="125" as="geometry"/>
                </mxCell>
                <mxCell id="u_BLpdaeCqH2IC9jJyCB-26" value="" style="html=1;points=[];perimeter=orthogonalPerimeter;" parent="nVJlJKb-nnLWxaNG2b3j-8" vertex="1">
                    <mxGeometry x="15" y="825" width="10" height="90" as="geometry"/>
                </mxCell>
                <mxCell id="nVJlJKb-nnLWxaNG2b3j-12" value="customer" style="shape=umlLifeline;participant=umlActor;perimeter=lifelinePerimeter;whiteSpace=wrap;html=1;container=1;collapsible=0;recursiveResize=0;verticalAlign=top;spacingTop=36;outlineConnect=0;" parent="dlqf_S2JkpdJH4igX8ao-1" vertex="1">
                    <mxGeometry x="90" y="50" width="20" height="990" as="geometry"/>
                </mxCell>
                <mxCell id="nVJlJKb-nnLWxaNG2b3j-20" value="" style="html=1;points=[];perimeter=orthogonalPerimeter;" parent="nVJlJKb-nnLWxaNG2b3j-12" vertex="1">
                    <mxGeometry x="5" y="120" width="10" height="150" as="geometry"/>
                </mxCell>
                <mxCell id="u_BLpdaeCqH2IC9jJyCB-14" value="" style="html=1;points=[];perimeter=orthogonalPerimeter;" parent="nVJlJKb-nnLWxaNG2b3j-12" vertex="1">
                    <mxGeometry x="5" y="330" width="10" height="150" as="geometry"/>
                </mxCell>
                <mxCell id="u_BLpdaeCqH2IC9jJyCB-15" value="" style="html=1;points=[];perimeter=orthogonalPerimeter;" parent="nVJlJKb-nnLWxaNG2b3j-12" vertex="1">
                    <mxGeometry x="5" y="650" width="10" height="150" as="geometry"/>
                </mxCell>
                <mxCell id="nVJlJKb-nnLWxaNG2b3j-16" value="see order" style="html=1;verticalAlign=bottom;endArrow=block;rounded=0;exitX=1.12;exitY=0.155;exitDx=0;exitDy=0;exitPerimeter=0;" parent="dlqf_S2JkpdJH4igX8ao-1" source="nVJlJKb-nnLWxaNG2b3j-20" target="nVJlJKb-nnLWxaNG2b3j-0" edge="1">
                    <mxGeometry width="80" relative="1" as="geometry">
                        <mxPoint x="110" y="200" as="sourcePoint"/>
                        <mxPoint x="220" y="200" as="targetPoint"/>
                        <mxPoint as="offset"/>
                    </mxGeometry>
                </mxCell>
                <mxCell id="nVJlJKb-nnLWxaNG2b3j-23" value="display order" style="edgeStyle=orthogonalEdgeStyle;html=1;align=left;spacingLeft=2;endArrow=block;rounded=0;" parent="dlqf_S2JkpdJH4igX8ao-1" edge="1">
                    <mxGeometry x="-0.6923" y="10" relative="1" as="geometry">
                        <mxPoint x="250" y="290" as="sourcePoint"/>
                        <Array as="points">
                            <mxPoint x="305" y="290"/>
                            <mxPoint x="305" y="310"/>
                        </Array>
                        <mxPoint x="250" y="310" as="targetPoint"/>
                        <mxPoint as="offset"/>
                    </mxGeometry>
                </mxCell>
                <mxCell id="nVJlJKb-nnLWxaNG2b3j-28" value="display order info" style="html=1;verticalAlign=bottom;endArrow=open;dashed=1;endSize=8;rounded=0;" parent="dlqf_S2JkpdJH4igX8ao-1" source="nVJlJKb-nnLWxaNG2b3j-5" target="nVJlJKb-nnLWxaNG2b3j-34" edge="1">
                    <mxGeometry x="0.0332" y="-5" relative="1" as="geometry">
                        <mxPoint x="850.5" y="370" as="sourcePoint"/>
                        <mxPoint x="715" y="370" as="targetPoint"/>
                        <Array as="points"/>
                        <mxPoint as="offset"/>
                    </mxGeometry>
                </mxCell>
                <mxCell id="nVJlJKb-nnLWxaNG2b3j-29" value="manage order" style="shape=umlLifeline;participant=umlBoundary;perimeter=lifelinePerimeter;whiteSpace=wrap;html=1;container=1;collapsible=0;recursiveResize=0;verticalAlign=top;spacingTop=36;outlineConnect=0;" parent="dlqf_S2JkpdJH4igX8ao-1" vertex="1">
                    <mxGeometry x="310" y="50" width="50" height="1000" as="geometry"/>
                </mxCell>
                <mxCell id="u_BLpdaeCqH2IC9jJyCB-3" value="" style="html=1;points=[];perimeter=orthogonalPerimeter;" parent="nVJlJKb-nnLWxaNG2b3j-29" vertex="1">
                    <mxGeometry x="20" y="320" width="10" height="80" as="geometry"/>
                </mxCell>
                <mxCell id="u_BLpdaeCqH2IC9jJyCB-9" value="" style="html=1;points=[];perimeter=orthogonalPerimeter;" parent="nVJlJKb-nnLWxaNG2b3j-29" vertex="1">
                    <mxGeometry x="20" y="440" width="10" height="80" as="geometry"/>
                </mxCell>
                <mxCell id="u_BLpdaeCqH2IC9jJyCB-16" value="" style="html=1;points=[];perimeter=orthogonalPerimeter;" parent="nVJlJKb-nnLWxaNG2b3j-29" vertex="1">
                    <mxGeometry x="20" y="650" width="10" height="90" as="geometry"/>
                </mxCell>
                <mxCell id="u_BLpdaeCqH2IC9jJyCB-25" value="" style="html=1;points=[];perimeter=orthogonalPerimeter;" parent="nVJlJKb-nnLWxaNG2b3j-29" vertex="1">
                    <mxGeometry x="20" y="810" width="10" height="80" as="geometry"/>
                </mxCell>
                <mxCell id="nVJlJKb-nnLWxaNG2b3j-32" value="display order" style="html=1;verticalAlign=bottom;endArrow=block;rounded=0;exitX=1.12;exitY=0.465;exitDx=0;exitDy=0;exitPerimeter=0;" parent="dlqf_S2JkpdJH4igX8ao-1" source="nVJlJKb-nnLWxaNG2b3j-1" edge="1">
                    <mxGeometry x="0.2338" y="7" width="80" relative="1" as="geometry">
                        <mxPoint x="111.20000000000005" y="229.60000000000002" as="sourcePoint"/>
                        <mxPoint x="470" y="207" as="targetPoint"/>
                        <mxPoint as="offset"/>
                    </mxGeometry>
                </mxCell>
                <mxCell id="nVJlJKb-nnLWxaNG2b3j-33" value="display order" style="html=1;verticalAlign=bottom;endArrow=block;rounded=0;" parent="dlqf_S2JkpdJH4igX8ao-1" source="nVJlJKb-nnLWxaNG2b3j-8" target="nVJlJKb-nnLWxaNG2b3j-5" edge="1">
                    <mxGeometry x="0.0706" width="80" relative="1" as="geometry">
                        <mxPoint x="271.20000000000005" y="217.20000000000005" as="sourcePoint"/>
                        <mxPoint x="434.5" y="217.20000000000005" as="targetPoint"/>
                        <mxPoint as="offset"/>
                        <Array as="points">
                            <mxPoint x="480" y="210"/>
                        </Array>
                    </mxGeometry>
                </mxCell>
                <mxCell id="nVJlJKb-nnLWxaNG2b3j-36" value="display order info" style="html=1;verticalAlign=bottom;endArrow=open;dashed=1;endSize=8;rounded=0;entryX=1.04;entryY=0.865;entryDx=0;entryDy=0;entryPerimeter=0;" parent="dlqf_S2JkpdJH4igX8ao-1" target="nVJlJKb-nnLWxaNG2b3j-1" edge="1">
                    <mxGeometry x="-0.1278" relative="1" as="geometry">
                        <mxPoint x="472.5" y="240" as="sourcePoint"/>
                        <mxPoint x="378" y="240" as="targetPoint"/>
                        <Array as="points"/>
                        <mxPoint x="-1" as="offset"/>
                    </mxGeometry>
                </mxCell>
                <mxCell id="u_BLpdaeCqH2IC9jJyCB-0" value="ubdate" style="html=1;verticalAlign=bottom;endArrow=block;rounded=0;" parent="dlqf_S2JkpdJH4igX8ao-1" source="u_BLpdaeCqH2IC9jJyCB-14" target="nVJlJKb-nnLWxaNG2b3j-29" edge="1">
                    <mxGeometry width="80" relative="1" as="geometry">
                        <mxPoint x="130" y="450" as="sourcePoint"/>
                        <mxPoint x="264.5" y="229.60000000000002" as="targetPoint"/>
                        <mxPoint as="offset"/>
                    </mxGeometry>
                </mxCell>
                <mxCell id="u_BLpdaeCqH2IC9jJyCB-1" value="ubdate" style="html=1;verticalAlign=bottom;endArrow=block;rounded=0;" parent="dlqf_S2JkpdJH4igX8ao-1" source="u_BLpdaeCqH2IC9jJyCB-3" edge="1">
                    <mxGeometry width="80" relative="1" as="geometry">
                        <mxPoint x="250.00000000000006" y="410.0000000000001" as="sourcePoint"/>
                        <mxPoint x="470" y="410" as="targetPoint"/>
                        <mxPoint as="offset"/>
                    </mxGeometry>
                </mxCell>
                <mxCell id="u_BLpdaeCqH2IC9jJyCB-5" value="get order details" style="html=1;verticalAlign=bottom;endArrow=block;rounded=0;entryX=-0.1;entryY=0.47;entryDx=0;entryDy=0;entryPerimeter=0;" parent="dlqf_S2JkpdJH4igX8ao-1" source="u_BLpdaeCqH2IC9jJyCB-2" target="u_BLpdaeCqH2IC9jJyCB-4" edge="1">
                    <mxGeometry width="80" relative="1" as="geometry">
                        <mxPoint x="350" y="420" as="sourcePoint"/>
                        <mxPoint x="493.29999999999995" y="420" as="targetPoint"/>
                        <mxPoint as="offset"/>
                    </mxGeometry>
                </mxCell>
                <mxCell id="u_BLpdaeCqH2IC9jJyCB-7" value="display order info" style="html=1;verticalAlign=bottom;endArrow=open;dashed=1;endSize=8;rounded=0;entryX=1.02;entryY=0.714;entryDx=0;entryDy=0;entryPerimeter=0;" parent="dlqf_S2JkpdJH4igX8ao-1" source="nVJlJKb-nnLWxaNG2b3j-5" target="u_BLpdaeCqH2IC9jJyCB-2" edge="1">
                    <mxGeometry x="0.0332" y="-5" relative="1" as="geometry">
                        <mxPoint x="540" y="440" as="sourcePoint"/>
                        <mxPoint x="510" y="440" as="targetPoint"/>
                        <Array as="points"/>
                        <mxPoint as="offset"/>
                    </mxGeometry>
                </mxCell>
                <mxCell id="u_BLpdaeCqH2IC9jJyCB-8" value="display order info" style="html=1;verticalAlign=bottom;endArrow=open;dashed=1;endSize=8;rounded=0;exitX=-0.02;exitY=0.733;exitDx=0;exitDy=0;exitPerimeter=0;" parent="dlqf_S2JkpdJH4igX8ao-1" source="u_BLpdaeCqH2IC9jJyCB-2" target="nVJlJKb-nnLWxaNG2b3j-29" edge="1">
                    <mxGeometry x="0.0332" y="-5" relative="1" as="geometry">
                        <mxPoint x="659.5" y="449.25" as="sourcePoint"/>
                        <mxPoint x="495.20000000000005" y="449.25" as="targetPoint"/>
                        <Array as="points"/>
                        <mxPoint as="offset"/>
                    </mxGeometry>
                </mxCell>
                <mxCell id="u_BLpdaeCqH2IC9jJyCB-10" value="ubdate" style="html=1;verticalAlign=bottom;endArrow=block;rounded=0;" parent="dlqf_S2JkpdJH4igX8ao-1" edge="1">
                    <mxGeometry width="80" relative="1" as="geometry">
                        <mxPoint x="340" y="530" as="sourcePoint"/>
                        <mxPoint x="470" y="530" as="targetPoint"/>
                        <mxPoint as="offset"/>
                    </mxGeometry>
                </mxCell>
                <mxCell id="u_BLpdaeCqH2IC9jJyCB-12" value="save update" style="html=1;verticalAlign=bottom;endArrow=block;rounded=0;entryX=0.1;entryY=0.445;entryDx=0;entryDy=0;entryPerimeter=0;" parent="dlqf_S2JkpdJH4igX8ao-1" source="u_BLpdaeCqH2IC9jJyCB-11" target="u_BLpdaeCqH2IC9jJyCB-13" edge="1">
                    <mxGeometry width="80" relative="1" as="geometry">
                        <mxPoint x="490" y="530" as="sourcePoint"/>
                        <mxPoint x="639" y="530" as="targetPoint"/>
                        <mxPoint as="offset"/>
                    </mxGeometry>
                </mxCell>
                <mxCell id="u_BLpdaeCqH2IC9jJyCB-20" value="cancel" style="html=1;verticalAlign=bottom;endArrow=block;rounded=0;entryX=-0.4;entryY=0.34;entryDx=0;entryDy=0;entryPerimeter=0;" parent="dlqf_S2JkpdJH4igX8ao-1" source="nVJlJKb-nnLWxaNG2b3j-12" target="u_BLpdaeCqH2IC9jJyCB-16" edge="1">
                    <mxGeometry width="80" relative="1" as="geometry">
                        <mxPoint x="140" y="730" as="sourcePoint"/>
                        <mxPoint x="270" y="730" as="targetPoint"/>
                        <mxPoint as="offset"/>
                    </mxGeometry>
                </mxCell>
                <mxCell id="u_BLpdaeCqH2IC9jJyCB-21" value="cancel" style="html=1;verticalAlign=bottom;endArrow=block;rounded=0;" parent="dlqf_S2JkpdJH4igX8ao-1" edge="1">
                    <mxGeometry x="-0.1172" width="80" relative="1" as="geometry">
                        <mxPoint x="340" y="728" as="sourcePoint"/>
                        <mxPoint x="480" y="728" as="targetPoint"/>
                        <mxPoint as="offset"/>
                        <Array as="points"/>
                    </mxGeometry>
                </mxCell>
                <mxCell id="u_BLpdaeCqH2IC9jJyCB-22" value="get order details" style="html=1;verticalAlign=bottom;endArrow=block;rounded=0;entryX=-0.1;entryY=0.47;entryDx=0;entryDy=0;entryPerimeter=0;" parent="dlqf_S2JkpdJH4igX8ao-1" edge="1">
                    <mxGeometry width="80" relative="1" as="geometry">
                        <mxPoint x="480" y="740" as="sourcePoint"/>
                        <mxPoint x="639" y="740" as="targetPoint"/>
                        <mxPoint as="offset"/>
                    </mxGeometry>
                </mxCell>
                <mxCell id="u_BLpdaeCqH2IC9jJyCB-23" value="display order info" style="html=1;verticalAlign=bottom;endArrow=open;dashed=1;endSize=8;rounded=0;entryX=1.02;entryY=0.714;entryDx=0;entryDy=0;entryPerimeter=0;" parent="dlqf_S2JkpdJH4igX8ao-1" edge="1">
                    <mxGeometry x="0.0332" y="-5" relative="1" as="geometry">
                        <mxPoint x="644.3" y="770" as="sourcePoint"/>
                        <mxPoint x="480.00000000000006" y="770" as="targetPoint"/>
                        <Array as="points"/>
                        <mxPoint as="offset"/>
                    </mxGeometry>
                </mxCell>
                <mxCell id="u_BLpdaeCqH2IC9jJyCB-24" value="display order info" style="html=1;verticalAlign=bottom;endArrow=open;dashed=1;endSize=8;rounded=0;" parent="dlqf_S2JkpdJH4igX8ao-1" target="nVJlJKb-nnLWxaNG2b3j-29" edge="1">
                    <mxGeometry x="0.0332" y="-5" relative="1" as="geometry">
                        <mxPoint x="470" y="780" as="sourcePoint"/>
                        <mxPoint x="490" y="780" as="targetPoint"/>
                        <Array as="points"/>
                        <mxPoint as="offset"/>
                    </mxGeometry>
                </mxCell>
                <mxCell id="u_BLpdaeCqH2IC9jJyCB-28" value="cancel" style="html=1;verticalAlign=bottom;endArrow=block;rounded=0;exitX=1.2;exitY=0.75;exitDx=0;exitDy=0;exitPerimeter=0;" parent="dlqf_S2JkpdJH4igX8ao-1" source="u_BLpdaeCqH2IC9jJyCB-25" target="nVJlJKb-nnLWxaNG2b3j-8" edge="1">
                    <mxGeometry width="80" relative="1" as="geometry">
                        <mxPoint x="109.5" y="740.5999999999999" as="sourcePoint"/>
                        <mxPoint x="450" y="920" as="targetPoint"/>
                        <mxPoint as="offset"/>
                    </mxGeometry>
                </mxCell>
                <mxCell id="u_BLpdaeCqH2IC9jJyCB-29" value="delete" style="html=1;verticalAlign=bottom;endArrow=block;rounded=0;entryX=0.18;entryY=0.618;entryDx=0;entryDy=0;entryPerimeter=0;" parent="dlqf_S2JkpdJH4igX8ao-1" source="nVJlJKb-nnLWxaNG2b3j-8" target="u_BLpdaeCqH2IC9jJyCB-27" edge="1">
                    <mxGeometry width="80" relative="1" as="geometry">
                        <mxPoint x="495" y="535.5999999999999" as="sourcePoint"/>
                        <mxPoint x="610" y="910" as="targetPoint"/>
                        <mxPoint as="offset"/>
                    </mxGeometry>
                </mxCell>
            </root>
        </mxGraphModel>
    </diagram>
</mxfile>